<svg viewBox="376.1081081081081 536.55 402.97297297297297 479.0625" xmlns="http://www.w3.org/2000/svg" xmlns:blush="http://design.blush" overflow="visible" xmlns:xlink="http://www.w3.org/1999/xlink" width="402.97297297297297px" height="479.0625px"><g id="Master/Character/Avatar" stroke="none" stroke-width="1" fill="none" fill-rule="evenodd" blush:has-customizable-colors="true" blush:viewBox="227.35309973045833 383.25 551.1590296495958 613.2000000000002" blush:i="0"><g id="Head" transform="translate(332.000000, 483.000000) scale(0.9978902953586498 1)" blush:width="473" blush:height="567" blush:component="Head" blush:i="0.0" blush:value="Short 2" blush:viewBox="44.2248803827751 62.36999999999995 388.38516746411483 459.2700000000001"><g id="Head/Short 2" stroke="none" stroke-width="1" fill="none" fill-rule="evenodd" blush:viewBox="44.2248803827751 62.36999999999995 388.38516746411483 459.2700000000001" blush:i="0.0.0"><path d="M405.2634,225.3185 C416.6414,217.1465 399.6754,190.2595 393.9114,182.2595 C388.8974,171.8235 383.8834,161.3865 378.8684,150.9495 C379.4784,142.3905 371.1204,134.7755 362.8614,137.3795 C355.6764,132.2265 343.6424,134.6935 339.9904,142.7615 C260.5434,108.1595 123.0774,122.5545 115.9684,229.3265 C100.6004,259.7265 85.3684,290.3865 71.7334,321.6075 C52.8154,322.6235 43.6454,345.6065 54.9084,360.4595 C56.4074,384.5785 71.6984,386.4875 92.1124,385.4145 C100.3104,387.5735 108.8084,388.7435 114.9564,395.0745 C119.6294,399.8495 122.8054,405.9045 125.8704,411.7795 C140.0154,438.8855 157.9864,462.3335 182.3464,481.0845 C220.2294,509.4355 271.5114,529.7905 318.7494,515.9895 C420.3064,476.1075 440.2504,316.7215 405.2634,225.3185 L405.2634,225.3185 Z" id="Skin" fill="#ffdbb4" blush:color="Skin-500" blush:i="0.0.0.0"/><path d="M193.3197,69.993 C259.6697,54.583 334.2097,75.263 380.2597,126.213 C383.4997,129.793 383.1497,134.453 380.2997,137.473 C381.6297,138.553 382.9297,139.663 384.2497,140.773 C385.6297,141.943 385.4297,144.293 384.2497,145.483 C383.0797,146.653 380.6497,146.893 379.5397,145.483 L377.89666,143.415 C377.0785,142.3818 376.2697,141.345 375.4897,140.283 C374.5397,140.633 373.6097,141.003 372.6797,141.363 C386.7497,150.713 398.4797,163.133 406.5197,178.083 C415.2197,194.253 420.7697,211.513 424.3797,229.473 C430.814788,261.510895 431.748121,294.369227 430.8875,326.947983 L430.8397,328.693 C429.7297,367.963 425.8997,407.883 409.3397,443.993 C396.0597,472.933 372.4597,499.543 342.8697,512.213 C325.8297,519.503 307.5097,522.613 288.9997,521.313 C279.2397,520.633 269.5097,519.093 260.0097,516.743 L257.72768,516.175922 C249.073411,514.008595 240.097808,511.495973 232.7097,506.543 C225.1297,501.453 230.2397,491.343 238.5997,492.573 C248.6697,494.063 258.2597,498.263 268.2497,500.443 C278.0197,502.583 287.9097,503.703 297.9197,503.413 C315.6297,502.913 331.7597,497.473 346.3997,487.593 C402.3697,449.803 409.1697,373.823 410.6297,312.423 C411.3397,282.423 410.2397,252.033 403.3397,222.723 C396.7097,194.543 385.2997,166.793 369.1497,142.723 C365.5897,144.053 362.0297,145.163 358.2397,145.513 C351.483922,149.574111 343.449823,149.681558 335.638112,149.683087 L334.5497,149.683 C326.4197,149.673 318.2897,149.193 310.1997,148.463 C281.5697,145.923 252.1097,139.483 223.3297,143.583 L222.154439,143.754801 C210.304091,145.537027 195.6197,149.277194 186.9197,157.803 C177.5197,167.003 183.8197,184.413 191.2597,189.943 C196.0697,193.523 197.5697,201.583 191.2597,204.833 C178.7997,211.263 148.6397,207.693 145.2497,211.253 C141.180135,215.508435 141.464894,221.993666 141.348131,227.516286 L141.3397,227.883 C140.9197,243.603 141.3097,259.273 142.6397,274.953 C143.9197,290.113 146.8297,305.303 147.4797,320.503 C147.6997,325.513 141.6497,327.033 138.3397,324.283 C137.6897,323.743 137.0197,323.233 136.3497,322.773 C130.3397,318.513 123.5097,316.713 116.1797,315.573 C115.7947,315.51175 115.493919,315.320344 115.277356,315.065773 L115.1897,314.953 L114.4097,315.593 C115.9297,317.483 117.2297,319.623 118.2597,322.023 C118.4697,322.503 118.0197,323.113 117.4897,322.793 C107.3497,316.763 96.3097,314.203 84.6397,316.643 C74.1397,318.833 64.6397,325.493 61.5597,336.153 C58.7297,345.963 60.8097,357.273 67.1597,365.343 C76.5497,377.303 91.7997,376.223 105.4797,376.773 C108.1597,376.883 111.1497,378.183 112.3997,380.743 C113.8697,383.763 113.7697,385.823 112.3997,388.833 C112.2097,389.263 111.9597,389.653 111.6697,390.003 C112.828033,390.961333 113.923867,392.009944 114.991922,393.079389 L118.563811,396.676586 C121.007251,399.144224 123.436843,401.633 125.7797,404.183 C132.6597,411.683 139.1297,419.663 145.2197,427.813 L145.782389,428.574101 C152.915703,438.332297 160.315085,452.424026 172.6797,455.503 C176.9197,456.563 180.8597,458.653 182.1197,463.243 C183.3797,467.833 180.4097,472.283 176.4197,474.203 C169.4997,477.533 160.7197,473.573 155.0097,469.373 C142.695734,460.302138 134.650669,445.503996 127.087345,432.476958 L125.016223,428.916691 C121.121106,422.195188 117.31595,415.39425 114.0697,408.333 C112.2197,404.303 110.2297,400.303 108.5097,396.213 C108.0097,395.023 107.5097,393.813 107.1197,392.573 C106.5697,392.693 106.0097,392.773 105.4797,392.803 C88.9697,393.883 69.9597,391.263 58.0297,378.733 C41.5797,361.463 39.6497,330.583 58.3397,314.103 C60.3097,312.363 62.5297,310.833 64.9297,309.523 C61.5897,303.873 59.3797,297.323 57.7497,291.173 C55.3697,282.193 54.0397,273.043 53.3797,263.783 C52.0497,244.893 54.2597,225.663 58.7997,207.313 C75.2597,140.803 125.7997,85.673 193.3197,69.993 Z M73.7498,345.9827 C70.4828,327.0341 108.399602,341.046263 116.668379,342.366621 L116.9098,342.4027 C126.394,343.7194 121.108093,360.355063 111.773883,355.399515 L111.4898,355.2427 C106.440467,352.349367 100.885889,350.274878 95.5903215,347.824069 L94.4598,347.2927 C90.2498,345.2727 76.3398,336.2027 74.8298,345.9827 C74.7498,346.5227 73.8398,346.5127 73.7498,345.9827 Z" id="Ink" fill="#000" blush:i="0.0.0.1"/></g></g><g id="Face" transform="translate(491.000000, 669.000000) scale(1 1)" fill="#000" blush:width="289" blush:height="293" blush:component="Face" blush:i="0.1" blush:value="Smile" blush:viewBox="52.90517241379308 51.27499999999998 184.65517241379308 193.38"><g id="Face/Smile" stroke="none" stroke-width="1" fill="none" fill-rule="evenodd" blush:viewBox="52.90517241379308 51.27499999999998 184.65517241379308 193.38" blush:i="0.1.0"><path d="M146.586567,240.926554 C139.864291,238.184203 133.866322,233.609781 129.481228,227.766254 C127.956691,225.734803 127.561405,223.589624 127.881219,221.627583 C128.240828,219.421406 129.546036,217.4219 131.326046,216.080693 C133.111571,214.735331 135.345035,214.071832 137.504329,214.410065 C139.380629,214.703969 141.248396,215.731287 142.726594,217.861908 L143.035427,218.287981 C145.642441,221.814933 149.039621,224.708755 152.91047,226.573991 C156.641339,228.371775 160.813939,229.21087 165.131898,228.722919 C173.355732,227.793938 179.024012,223.346401 185.048774,217.30672 C185.795561,216.544195 186.542826,215.757766 187.293714,214.958678 C187.767915,214.234308 188.425986,213.768756 189.156624,213.524488 C189.967867,213.253272 190.885573,213.268617 191.726122,213.56195 C192.536835,213.844871 193.261572,214.380994 193.747527,215.094538 C194.209389,215.772704 194.47125,216.610486 194.386283,217.574143 C193.834826,223.833283 190.562474,229.419299 185.914235,233.805502 C180.751772,238.67694 173.908551,242.047034 167.465957,243.229031 C160.36811,244.531047 153.135593,243.598228 146.586567,240.926554 L146.586567,240.926554 Z M170.814304,144.367155 C178.365682,148.9572 189.871664,159.660291 181.748119,171.039573 C172.185929,181.073062 158.418535,169.568982 151.634201,164.366134 C145.343449,160.333898 138.275437,170.704507 144.112,175.412823 C193.135736,211.708059 213.030606,145.567387 174.633685,138.970386 C170.406047,138.243425 168.835891,142.947174 170.814304,144.367155 Z M82.9633,102.1464 C83.7976284,91.7901242 99.5703,89.4384 101.1393,99.6864 C102.5443,108.8664 100.8903,117.2994 96.7553,125.5644 C92.8043,133.4604 82.8737826,129.776544 82.1227826,122.586544 C81.1160984,112.948648 82.4443,108.588596 82.9633,102.1464 Z M203.027,97.5615 C205.226,94.6815 208.401,92.7155 212.205,93.8265 C224.09,97.2995 220.587,114.1725 216.413,122.3855 C214.145,126.8455 206.814,127.9765 203.501,124.0495 C198.101,117.6455 195.515,104.8565 202.38,98.5485 C202.566,98.2225 202.773,97.8935 203.027,97.5615 Z M96.5879,56.8305 L98.465271,56.501905 C104.27307,55.49746 111.4944,54.5323 115.6029,59.2015 C117.7819,61.6775 118.5319,66.2795 115.6029,68.6495 C110.4509,72.8195 104.7549,71.2035 98.5809,71.5565 C93.4929,71.8485 88.6029,72.6905 83.7019,74.0915 C72.9499,77.1645 64.1889,82.7745 55.0059,88.9345 C53.8009,89.7425 52.5709,88.2015 53.1459,87.0745 C58.4469,76.6915 68.7199,68.1625 79.0099,62.9635 C84.5019,60.1885 90.5119,57.8865 96.5879,56.8305 Z M192.192876,52.1793876 L193.629806,52.4734684 C209.267042,55.742077 229.583473,62.2713911 236.988459,77.6308459 C237.270623,79.8027272 236.97249,80.2682047 236.730054,80.5723213 L236.649336,80.6735209 C236.449568,80.9332186 236.290169,81.2912104 235.348782,81.5868073 C235.087547,81.5245653 234.823712,81.4586426 234.557082,81.3887687 C231.162766,80.499243 228.477205,79.2737961 225.877298,78.0022488 L223.058339,76.6134493 C219.787784,75.0098309 216.488352,73.4645766 212.991711,72.3238115 C205.52958,69.8898666 197.854137,68.1753043 190.059777,67.259767 C188.37041,67.0615005 186.743655,66.4913394 185.460262,65.5141761 C184.242065,64.5866523 183.311441,63.3024737 182.887128,61.5955207 C182.33722,59.3864508 182.495251,57.7140037 183.680513,55.7210991 C184.571756,54.2244705 185.846982,53.1871113 187.311265,52.5914244 C188.804038,51.9841473 190.503545,51.840982 192.192876,52.1793876 Z" id="Ink" fill="#000" blush:i="0.1.0.0"/></g></g><g id="Beard" transform="translate(454.999934, 820.999659) scale(1 1)" fill="#000" blush:width="280" blush:height="230" blush:component="Beard" blush:i="0.2" blush:value="None" blush:viewBox="490 402.5 0 0"><g id="Beard/None" stroke="none" stroke-width="1" fill="none" fill-rule="evenodd" fill-opacity="0" blush:viewBox="490 402.5 0 0" blush:i="0.2.0"/></g><g id="Mask" transform="translate(360.000000, 783.000000) scale(1 1)" fill="#000" blush:width="397" blush:height="228" blush:component="Mask" blush:i="0.3" blush:value="None" blush:viewBox="694.75 399 0 0"><g id="Mask/None" stroke="none" stroke-width="1" fill="none" fill-rule="evenodd" fill-opacity="0" blush:viewBox="694.75 399 0 0" blush:i="0.3.0"/></g><g id="Accessories" transform="translate(379.000000, 724.000000) scale(1 1)" fill="#000" blush:width="392" blush:height="138" blush:component="Accessories" blush:i="0.4" blush:value="None" blush:viewBox="686 241.5 0 0"><g id="Accessories/None" stroke="none" stroke-width="1" fill="none" fill-rule="evenodd" fill-opacity="0" blush:viewBox="686 241.5 0 0" blush:i="0.4.0"/></g></g></svg>