<svg viewBox="318.54054054054063 536.55 460.5405405405406 459.90000000000043" xmlns="http://www.w3.org/2000/svg" xmlns:blush="http://design.blush" overflow="visible" xmlns:xlink="http://www.w3.org/1999/xlink" width="460.5405405405406px" height="459.90000000000043px"><g id="Master/Character/Avatar" stroke="none" stroke-width="1" fill="none" fill-rule="evenodd" blush:has-customizable-colors="true" blush:viewBox="227.35309973045833 383.25 551.1590296495958 613.2000000000002" blush:i="0"><g id="Head" transform="translate(332.000000, 483.000000) scale(0.9978902953586498 1)" blush:width="473" blush:height="567" blush:component="Head" blush:i="0.0" blush:value="Medium 1" blush:viewBox="1.7009569377990488 56.700000000000045 433.74401913875596 456.4350000000001"><g id="Head/Medium 1" stroke="none" stroke-width="1" fill="none" fill-rule="evenodd" blush:viewBox="1.7009569377990488 56.700000000000045 433.74401913875596 456.4350000000001" blush:i="0.0.0"><path d="M195.395558,82.6720788 C346.965479,75.2183452 357.551668,119.271611 378.365264,147.356837 C388.694346,161.294583 415.36224,181.93629 419.786376,229.602142 C422.857417,262.689688 403.308238,300.826871 403.308238,330.393336 C403.308238,345.485177 421.786376,377.885575 413.184129,399.881894 C394.037459,448.840758 353.497414,503.176 301.837107,503.176 C250.1768,503.176 154.814935,474.704319 97.7325351,392.972519 C79.0353378,366.201473 43.8256361,90.1258123 195.395558,82.6720788 Z" id="Skin" fill="#edb98a" blush:color="Skin-500" blush:i="0.0.0.0"/><path d="M416.009341,333.345332 C412.699341,329.695332 410.129341,326.695332 409.269341,321.675332 C408.909341,319.584332 408.749341,317.435332 408.679341,315.275332 C421.969341,296.695332 434.889341,252.808332 434.889341,228.804332 C434.889341,194.939332 422.399341,162.355332 401.899341,135.405332 C361.939341,82.9143323 295.419341,56.0043323 230.319341,58.1153323 C167.979341,60.1243323 101.671341,83.1043323 62.7833414,132.226332 C-66.2406586,295.201332 42.0473414,473.217332 121.359341,510.254332 C128.263341,513.478332 150.561341,512.358332 147.454341,505.473332 C138.530341,485.694332 131.499341,449.265332 129.859341,441.064332 C132.399341,442.775332 134.959341,444.445332 137.529341,446.175332 C142.079341,449.224332 148.179341,452.714332 153.899341,451.704332 C154.169341,451.655332 154.339341,451.365332 154.349341,451.115332 C154.609341,445.744332 150.769341,440.224332 147.389341,436.394332 C142.699341,431.074332 138.239341,425.624332 133.189341,420.634332 C131.039341,418.504332 128.859341,416.394332 126.679341,414.284332 C126.399341,401.624332 127.249341,388.905332 129.519341,376.175332 C133.449341,354.105332 140.229341,332.605332 148.019341,311.445332 C154.529341,306.644332 160.849341,301.595332 166.699341,296.074332 C180.789341,282.784332 191.539341,266.525332 200.759341,249.425332 C200.869341,249.374332 200.989341,249.314332 201.099341,249.265332 C218.969341,240.954332 236.689341,232.325332 254.269341,223.425332 C263.339341,218.834332 272.349341,214.134332 281.359341,209.435332 C286.259341,206.874332 291.309341,204.544332 296.319341,202.134332 C294.969341,209.054332 293.149341,215.874332 290.939341,222.584332 C289.119341,228.095332 294.679341,232.164332 299.599341,231.254332 C316.349341,228.155332 332.539341,221.925332 347.109341,213.105332 C354.329341,208.735332 361.199341,203.685332 367.569341,198.144332 C373.939341,207.634332 381.679341,216.534332 389.489341,224.195332 C394.759341,229.365332 400.269341,234.284332 405.989341,238.945332 C403.399341,256.775332 401.179341,274.644332 398.369341,292.435332 C396.899341,301.735332 395.129341,311.034332 394.019341,320.384332 C392.809341,330.574332 396.179341,337.834332 402.889341,345.284332 C412.269341,355.695332 412.259341,370.754332 408.669341,383.685332 C408.229341,385.284332 407.679341,386.845332 407.109341,388.394332 C406.989341,388.714332 406.639341,389.584332 406.509341,389.925332 C406.509341,389.935332 406.509341,389.945332 406.499341,389.964332 C406.499341,389.974332 406.489341,389.985332 406.489341,389.994332 C406.479341,389.994332 406.479341,390.004332 406.469341,390.015332 L406.469341,390.034332 L406.469341,390.044332 L406.459341,390.054332 C406.039341,391.034332 405.589341,391.994332 405.139341,392.954332 C403.089341,397.284332 400.799341,401.515332 398.419341,405.675332 C386.719341,426.214332 371.939341,445.004332 355.099341,461.584332 C347.259341,469.304332 339.109341,476.485332 329.899341,482.365332 C327.959341,483.595332 325.979341,484.784332 323.949341,485.874332 C322.859341,486.464332 321.739341,487.015332 320.619341,487.574332 C318.979341,488.384332 319.659341,488.064332 318.659341,488.464332 C316.849341,489.175332 314.999341,489.794332 313.109341,490.284332 C312.099341,490.544332 311.079341,490.765332 310.049341,490.954332 C310.039341,490.954332 310.019341,490.964332 309.989341,490.964332 C309.979341,490.964332 309.969341,490.974332 309.959341,490.964332 C309.949341,490.974332 309.929341,490.974332 309.909341,490.974332 C309.529341,491.004332 308.849341,491.064332 308.719341,491.064332 C294.359341,491.115332 280.119341,489.185332 266.219341,485.615332 C258.689341,483.675332 251.169341,481.324332 244.089341,478.095332 C240.489341,476.445332 236.969341,474.615332 233.599341,472.544332 C232.089341,471.615332 230.659341,470.494332 229.069341,469.685332 C226.689341,468.464332 224.359341,468.595332 221.789341,468.485332 C217.869341,468.324332 215.089341,472.425332 216.049341,476.025332 C217.219341,480.414332 219.059341,483.004332 222.839341,485.615332 C225.859341,487.695332 229.059341,489.534332 232.319341,491.204332 C239.419341,494.855332 246.929341,497.824332 254.529341,500.254332 C268.759341,504.794332 283.739341,507.584332 298.639341,508.605332 C309.489341,509.345332 318.889341,507.894332 328.769341,503.324332 C339.199341,498.494332 348.549341,491.284332 357.199341,483.804332 C376.569341,467.064332 393.419341,446.754332 407.709341,425.564332 C421.139341,405.644332 431.559341,383.954332 428.129341,359.224332 C426.759341,349.304332 422.719341,340.765332 416.009341,333.345332" id="Ink" fill="#000" blush:i="0.0.0.1"/></g></g><g id="Face" transform="translate(491.000000, 669.000000) scale(1 1)" fill="#000" blush:width="289" blush:height="293" blush:component="Face" blush:i="0.1" blush:value="Cheeky" blush:viewBox="52.90517241379308 55.670000000000016 184.65517241379308 205.10000000000002"><g id="Face/Cheeky" stroke="none" stroke-width="1" fill="none" fill-rule="evenodd" blush:viewBox="52.90517241379308 55.670000000000016 184.65517241379308 205.10000000000002" blush:i="0.1.0"><path d="M166.9438,221.352 C168.4778,218.685 172.0098,216.214 175.2418,216.593 C189.7208,218.291 189.6958,235.845 184.1048,246.093 C179.1478,255.18 168.8888,260.514 158.6208,259.735 C147.8338,258.916 138.6428,252.574 134.5978,242.483 C131.9228,235.808 130.6868,223.485 137.8028,219 C137.9348,218.916 138.1528,218.937 138.2578,219.058 C141.6698,223.027 141.8038,228.986 144.7908,233.405 C147.5688,237.515 151.8848,240.909 156.9408,241.433 C160.7168,241.825 164.5368,240.463 166.0138,237.073 C166.812891,235.239364 166.721899,234.243744 166.421516,232.981708 L166.148563,231.885055 C165.202801,228.043565 164.778057,225.118714 166.9438,221.352 Z M170.814304,144.367155 C178.365682,148.9572 189.871664,159.660291 181.748119,171.039573 C172.185929,181.073062 158.418535,169.568982 151.634201,164.366134 C145.343449,160.333898 138.275437,170.704507 144.112,175.412823 C193.135736,211.708059 213.030606,145.567387 174.633685,138.970386 C170.406047,138.243425 168.835891,142.947174 170.814304,144.367155 Z M91.0715,112.8926 C95.7065,105.9386 106.2865,106.9626 108.8395,115.2146 C110.2225,119.6846 108.3125,123.7026 108.4115,128.1666 C108.4945,131.9376 108.2475,136.1396 107.0915,139.7916 C104.4555,148.1196 96.9655,154.0016 88.1045,153.7576 C79.2725,153.5146 71.4935,147.9246 67.7945,140.0516 C64.0825,132.1486 64.8685,123.9696 67.5785,115.9336 C67.7085,115.5476 68.2145,115.3606 68.5195,115.6856 C71.7228333,119.089767 74.0678333,122.683517 76.4943148,126.495785 L78.9809333,130.40279 C80.8812656,133.344819 83.6431037,137.103142 87.1914615,136.867072 L87.7238987,136.814547 C88.7099852,136.729908 88.5588846,136.9256 89.3195,135.5816 C89.6715,134.9596 89.6075,133.8036 89.7775,133.0696 L89.8365,132.8216 L89.8365,132.8216 L89.8043384,132.68798 C89.7292832,132.332503 89.6547866,131.66266 89.5942529,130.500284 L89.5815,130.2436 C89.3245,124.8066 87.7875,117.8196 91.0715,112.8926 Z M208.5632,117.5221 C207.7322,108.6281 220.2362,106.6531 224.3932,113.2341 C226.561303,116.665997 227.192546,120.977055 227.67203,125.0615 L227.8962,127.0001 C228.3882,131.1951 228.5832,135.5591 226.7622,139.4721 C223.8942,145.6351 217.6572,148.8931 210.9292,148.3771 C204.5042,147.8831 198.6422,144.1581 195.5522,138.5031 C192.7972,133.4571 190.0582,123.6051 193.4042,118.3421 C193.6062,118.0231 194.0102,117.9821 194.2872,118.2281 C197.4492,121.0351 197.9642,126.1551 199.8442,129.8121 C201.7832,133.5841 204.7242,137.2601 209.1812,137.8331 C213.4452,138.3811 215.0742,136.0521 213.9862,131.9871 C212.5832,126.7391 209.0912,123.1691 208.5632,117.5221 Z M94.4489,60.0159 L96.4937284,59.2327124 C103.499922,56.5860716 113.118768,53.5268605 118.8149,59.2239 C122.3289,62.7369 122.9979,67.9119 120.4899,72.1989 C117.4509,77.3919 111.9999,77.5199 106.7359,78.2849 C100.7489,79.1549 94.6599,80.8089 89.0859,83.1669 C82.8069,85.8239 76.9799,89.1359 71.2709,92.8349 C65.8449,96.3499 60.4379,102.0949 53.9429,103.1779 C53.6779,103.2219 53.3769,103.1079 53.3079,102.8169 C51.8329,96.4669 55.9319,90.2179 59.5899,85.2639 C64.0159,79.2659 69.3789,74.3429 75.3729,69.9289 C81.1579,65.6679 87.7679,62.5889 94.4489,60.0159 Z M221.7162,82.5925 L222.340762,82.4830541 C226.589355,81.7757704 230.439386,81.9386395 233.6412,85.3035 C236.0852,87.8705 237.0272,91.1975 235.8622,94.5915 C234.7872,97.7225 232.3832,100.9035 228.8942,101.5595 C217.1152,103.7755 204.0682,103.4095 192.2302,101.7315 C186.814067,100.963367 181.349151,100.023624 176.073673,98.5415284 L173.646557,97.8379125 C169.242357,96.5798884 164.200291,95.2655909 161.0012,92.0265 C159.8512,90.8625 160.5142,89.1965 161.8902,88.6575 C167.4722,86.4715 175.1232,87.6345 181.0752,87.4635 C187.9992,87.2655 194.9342,86.7465 201.8252,86.0315 C208.5592,85.3315 215.0752,83.8105 221.7162,82.5925 Z" id="Ink" fill="#000" blush:i="0.1.0.0"/></g></g><g id="Beard" transform="translate(454.999934, 820.999659) scale(1 1)" fill="#000" blush:width="280" blush:height="230" blush:component="Beard" blush:i="0.2" blush:value="None" blush:viewBox="490 402.5 0 0"><g id="Beard/None" stroke="none" stroke-width="1" fill="none" fill-rule="evenodd" fill-opacity="0" blush:viewBox="490 402.5 0 0" blush:i="0.2.0"/></g><g id="Mask" transform="translate(360.000000, 783.000000) scale(1 1)" fill="#000" blush:width="397" blush:height="228" blush:component="Mask" blush:i="0.3" blush:value="None" blush:viewBox="694.75 399 0 0"><g id="Mask/None" stroke="none" stroke-width="1" fill="none" fill-rule="evenodd" fill-opacity="0" blush:viewBox="694.75 399 0 0" blush:i="0.3.0"/></g><g id="Accessories" transform="translate(379.000000, 724.000000) scale(1 1)" fill="#000" blush:width="392" blush:height="138" blush:component="Accessories" blush:i="0.4" blush:value="None" blush:viewBox="686 241.5 0 0"><g id="Accessories/None" stroke="none" stroke-width="1" fill="none" fill-rule="evenodd" fill-opacity="0" blush:viewBox="686 241.5 0 0" blush:i="0.4.0"/></g></g></svg>